Adsworth-GRADMIN.ufo
<glyph name="numbersign" format="2">
  <advance width="1272"/>
  <unicode hex="0023"/>
  <outline>
    <contour>
      <point x="248" y="0" type="line"/>
      <point x="448" y="1500" type="line"/>
      <point x="489" y="1500" type="line"/>
      <point x="289" y="0" type="line"/>
    </contour>
    <contour>
      <point x="1206" y="490" type="line"/>
      <point x="6" y="490" type="line"/>
      <point x="6" y="530" type="line"/>
      <point x="1206" y="530" type="line"/>
    </contour>
    <contour>
      <point x="1246" y="945" type="line"/>
      <point x="46" y="945" type="line"/>
      <point x="46" y="985" type="line"/>
      <point x="1246" y="985" type="line"/>
    </contour>
    <contour>
      <point x="788" y="0" type="line"/>
      <point x="988" y="1500" type="line"/>
      <point x="1029" y="1500" type="line"/>
      <point x="829" y="0" type="line"/>
    </contour>
  </outline>
</glyph>
<glyph name="ampersand" format="2">
  <advance width="1180"/>
  <unicode hex="0026"/>
  <outline>
    <contour>
      <point x="693" y="548" type="line"/>
      <point x="1128" y="679" type="line"/>
      <point x="1140" y="640" type="line"/>
      <point x="705" y="509" type="line"/>
    </contour>
    <contour>
      <point x="676" y="777" type="line"/>
      <point x="468" y="777" type="line" smooth="yes"/>
      <point x="334" y="777"/>
      <point x="98" y="597"/>
      <point x="98.0" y="422" type="qcurve" smooth="yes"/>
      <point x="98.0" y="411" type="line" smooth="yes"/>
      <point x="98" y="228.0"/>
      <point x="333.0" y="20.0"/>
      <point x="539.0" y="20.0" type="qcurve" smooth="yes"/>
      <point x="550.0" y="20.0" type="line" smooth="yes"/>
      <point x="787.0" y="20.0"/>
      <point x="1035" y="228"/>
      <point x="1035.0" y="409" type="qcurve" smooth="yes"/>
      <point x="1035.0" y="422" type="line" smooth="yes"/>
      <point x="1035.0" y="475"/>
      <point x="999" y="560"/>
      <point x="976" y="599" type="qcurve"/>
      <point x="1009" y="611" type="line"/>
      <point x="1037" y="573"/>
      <point x="1075" y="474"/>
      <point x="1075" y="431" type="qcurve" smooth="yes"/>
      <point x="1075" y="401" type="line" smooth="yes"/>
      <point x="1075" y="212"/>
      <point x="784" y="-25"/>
      <point x="538" y="-25" type="qcurve" smooth="yes"/>
      <point x="532" y="-25" type="line" smooth="yes"/>
      <point x="334" y="-25"/>
      <point x="58" y="212"/>
      <point x="58" y="401" type="qcurve" smooth="yes"/>
      <point x="58" y="431" type="line" smooth="yes"/>
      <point x="58" y="586.0"/>
      <point x="228.0" y="763.0"/>
      <point x="347" y="795" type="qcurve"/>
      <point x="238.0" y="816.0"/>
      <point x="108.0" y="974.0"/>
      <point x="108" y="1112" type="qcurve" smooth="yes"/>
      <point x="108" y="1138" type="line" smooth="yes"/>
      <point x="108" y="1305"/>
      <point x="337" y="1523"/>
      <point x="503" y="1523" type="qcurve" smooth="yes"/>
      <point x="509" y="1523" type="line" smooth="yes"/>
      <point x="689" y="1523"/>
      <point x="908" y="1326"/>
      <point x="917" y="1149" type="qcurve" smooth="yes"/>
      <point x="917" y="1130" type="line"/>
      <point x="875.0" y="1132" type="line"/>
      <point x="875.0" y="1148" type="line" smooth="yes"/>
      <point x="875.0" y="1301"/>
      <point x="680.0" y="1488.0"/>
      <point x="505.0" y="1488.0" type="qcurve" smooth="yes"/>
      <point x="500.0" y="1488.0" type="line" smooth="yes"/>
      <point x="338.0" y="1488.0"/>
      <point x="148.0" y="1286"/>
      <point x="148.0" y="1128" type="qcurve" smooth="yes"/>
      <point x="148" y="1119" type="line" smooth="yes"/>
      <point x="148" y="965.0"/>
      <point x="312.0" y="817.0"/>
      <point x="454" y="817" type="qcurve" smooth="yes"/>
      <point x="683" y="817" type="line"/>
    </contour>
  </outline>
</glyph>
<glyph name="parenright" format="2">
  <advance width="692"/>
  <unicode hex="0029"/>
  <outline>
    <contour>
      <point x="110" y="-311" type="qcurve"/>
      <point x="70" y="-291" type="line"/>
      <point x="474" y="136"/>
      <point x="462" y="1078"/>
      <point x="75" y="1505" type="qcurve"/>
      <point x="115" y="1525" type="line"/>
      <point x="512" y="1090"/>
      <point x="512" y="110"/>
    </contour>
  </outline>
</glyph>
<glyph name="asterisk" format="2">
  <advance width="1199"/>
  <unicode hex="002A"/>
  <outline>
    <contour>
      <point x="631.0" y="1033" type="line"/>
      <point x="333" y="614" type="line"/>
      <point x="304" y="638" type="line"/>
      <point x="602" y="1055.0" type="line"/>
      <point x="135" y="1219" type="line"/>
      <point x="154" y="1256" type="line"/>
      <point x="613" y="1098" type="line"/>
      <point x="609" y="1596.0" type="line"/>
      <point x="653" y="1596.0" type="line"/>
      <point x="648" y="1098" type="line"/>
      <point x="1115" y="1256" type="line"/>
      <point x="1129" y="1217" type="line"/>
      <point x="657" y="1058.0" type="line"/>
      <point x="964" y="638" type="line"/>
      <point x="929" y="615" type="line"/>
    </contour>
  </outline>
</glyph>
<glyph name="slash" format="2">
  <advance width="624"/>
  <unicode hex="002F"/>
  <outline>
    <contour>
      <point x="-22" y="0" type="line"/>
      <point x="618" y="1500" type="line"/>
      <point x="662" y="1500" type="line"/>
      <point x="22" y="0" type="line"/>
    </contour>
  </outline>
</glyph>
<glyph name="zero" format="2">
  <advance width="1239"/>
  <unicode hex="0030"/>
  <outline>
    <contour>
      <point x="618" y="-25.0" type="line" smooth="yes"/>
      <point x="363.0" y="-25"/>
      <point x="77" y="402.0"/>
      <point x="77" y="724.0" type="qcurve" smooth="yes"/>
      <point x="77" y="775.0" type="line" smooth="yes"/>
      <point x="77" y="1097.0"/>
      <point x="359.0" y="1524.0"/>
      <point x="614" y="1524.0" type="qcurve" smooth="yes"/>
      <point x="620" y="1524.0" type="line" smooth="yes"/>
      <point x="879.0" y="1524.0"/>
      <point x="1162" y="1097.0"/>
      <point x="1162" y="775.0" type="qcurve" smooth="yes"/>
      <point x="1162" y="724.0" type="line" smooth="yes"/>
      <point x="1162" y="402.0"/>
      <point x="882.0" y="-25.0"/>
      <point x="624" y="-25.0" type="qcurve" smooth="yes"/>
    </contour>
    <contour>
      <point x="621" y="13.0" type="line" smooth="yes"/>
      <point x="862" y="13"/>
      <point x="1122" y="438.0"/>
      <point x="1122" y="722.0" type="qcurve" smooth="yes"/>
      <point x="1122" y="772.0" type="line" smooth="yes"/>
      <point x="1122" y="1055.0"/>
      <point x="866" y="1486.0"/>
      <point x="621" y="1486.0" type="qcurve" smooth="yes"/>
      <point x="613" y="1486.0" type="line" smooth="yes"/>
      <point x="381" y="1486.0"/>
      <point x="117" y="1055.0"/>
      <point x="117" y="772.0" type="qcurve" smooth="yes"/>
      <point x="117" y="722.0" type="line" smooth="yes"/>
      <point x="117" y="438.0"/>
      <point x="376" y="13"/>
      <point x="613" y="13.0" type="qcurve" smooth="yes"/>
    </contour>
  </outline>
</glyph>
<glyph name="one" format="2">
  <advance width="584"/>
  <unicode hex="0031"/>
  <outline>
    <contour>
      <point x="272.0" y="0.0" type="line"/>
      <point x="272.0" y="1500.0" type="line"/>
      <point x="312.0" y="1500.0" type="line"/>
      <point x="312.0" y="0.0" type="line"/>
    </contour>
  </outline>
</glyph>
<glyph name="six" format="2">
  <advance width="1099"/>
  <unicode hex="0036"/>
  <outline>
    <contour>
      <point x="102" y="652" type="qcurve" smooth="yes"/>
      <point x="102" y="493.0" type="line" smooth="yes"/>
      <point x="102" y="272"/>
      <point x="368.0" y="14"/>
      <point x="567" y="14.0" type="qcurve" smooth="yes"/>
      <point x="576" y="14.0" type="line" smooth="yes"/>
      <point x="762" y="14"/>
      <point x="1013" y="254"/>
      <point x="1013" y="454.0" type="qcurve" smooth="yes"/>
      <point x="1013" y="489.0" type="line" smooth="yes"/>
      <point x="1013" y="690"/>
      <point x="775" y="918"/>
      <point x="576" y="918.0" type="qcurve" smooth="yes"/>
      <point x="567" y="918.0" type="line" smooth="yes"/>
      <point x="382" y="918"/>
      <point x="102" y="703"/>
      <point x="102" y="527.0" type="qcurve" smooth="yes"/>
      <point x="102" y="509.0" type="line"/>
      <point x="77" y="505" type="line"/>
      <point x="77" y="519" type="line" smooth="yes"/>
      <point x="77" y="727"/>
      <point x="370" y="958"/>
      <point x="567" y="958.0" type="qcurve" smooth="yes"/>
      <point x="574" y="958.0" type="line" smooth="yes"/>
      <point x="794" y="958"/>
      <point x="1053.0" y="715.0"/>
      <point x="1053" y="489.0" type="qcurve" smooth="yes"/>
      <point x="1053" y="454.0" type="line" smooth="yes"/>
      <point x="1053.0" y="238.0"/>
      <point x="770" y="-25.0"/>
      <point x="570" y="-25.0" type="qcurve" smooth="yes"/>
      <point x="563" y="-25.0" type="line" smooth="yes"/>
      <point x="365" y="-25.0"/>
      <point x="56" y="253"/>
      <point x="56" y="570" type="qcurve" smooth="yes"/>
      <point x="56" y="591" type="line" smooth="yes"/>
      <point x="56" y="1047.0"/>
      <point x="541" y="1500.0"/>
      <point x="856" y="1500" type="qcurve" smooth="yes"/>
      <point x="893" y="1500" type="line"/>
      <point x="893" y="1461" type="line"/>
      <point x="856" y="1461" type="line" smooth="yes"/>
      <point x="541" y="1461"/>
      <point x="102" y="1027.0"/>
    </contour>
  </outline>
</glyph>
<glyph name="colon" format="2">
  <advance width="600"/>
  <unicode hex="003A"/>
  <outline>
    <contour>
      <point x="300" y="-4" type="line" smooth="yes"/>
      <point x="316" y="-4"/>
      <point x="334.0" y="39.0"/>
      <point x="334" y="82" type="qcurve" smooth="yes"/>
      <point x="334" y="109" type="line" smooth="yes"/>
      <point x="334" y="152"/>
      <point x="318" y="196"/>
      <point x="301" y="196" type="qcurve" smooth="yes"/>
      <point x="298" y="196" type="line" smooth="yes"/>
      <point x="283" y="196"/>
      <point x="266" y="152"/>
      <point x="266" y="109" type="qcurve" smooth="yes"/>
      <point x="266" y="82" type="line" smooth="yes"/>
      <point x="266.0" y="39.0"/>
      <point x="282" y="-4"/>
      <point x="298" y="-4" type="qcurve" smooth="yes"/>
    </contour>
    <contour>
      <point x="300" y="709" type="line" smooth="yes"/>
      <point x="316" y="709"/>
      <point x="334.0" y="752.0"/>
      <point x="334" y="795" type="qcurve" smooth="yes"/>
      <point x="334" y="822" type="line" smooth="yes"/>
      <point x="334" y="865"/>
      <point x="318" y="909"/>
      <point x="301" y="909" type="qcurve" smooth="yes"/>
      <point x="298" y="909" type="line" smooth="yes"/>
      <point x="283" y="909"/>
      <point x="266" y="865"/>
      <point x="266" y="822" type="qcurve" smooth="yes"/>
      <point x="266" y="795" type="line" smooth="yes"/>
      <point x="266.0" y="752.0"/>
      <point x="282" y="709"/>
      <point x="298" y="709" type="qcurve" smooth="yes"/>
    </contour>
  </outline>
</glyph>
<glyph name="semicolon" format="2">
  <advance width="600"/>
  <unicode hex="003B"/>
  <outline>
    <contour>
      <point x="300" y="709" type="line" smooth="yes"/>
      <point x="316" y="709"/>
      <point x="334.0" y="752.0"/>
      <point x="334" y="795" type="qcurve" smooth="yes"/>
      <point x="334" y="822" type="line" smooth="yes"/>
      <point x="334" y="865"/>
      <point x="318" y="909"/>
      <point x="301" y="909" type="qcurve" smooth="yes"/>
      <point x="298" y="909" type="line" smooth="yes"/>
      <point x="283" y="909"/>
      <point x="266" y="865"/>
      <point x="266" y="822" type="qcurve" smooth="yes"/>
      <point x="266" y="795" type="line" smooth="yes"/>
      <point x="266.0" y="752.0"/>
      <point x="282" y="709"/>
      <point x="298" y="709" type="qcurve" smooth="yes"/>
    </contour>
    <contour>
      <point x="115" y="-189" type="line"/>
      <point x="256" y="100" type="line" smooth="yes"/>
      <point x="279" y="147"/>
      <point x="316.0" y="207.0"/>
      <point x="335" y="207" type="qcurve" smooth="yes"/>
      <point x="337" y="207" type="line" smooth="yes"/>
      <point x="350" y="207"/>
      <point x="359" y="164"/>
      <point x="332" y="105" type="qcurve" smooth="yes"/>
      <point x="327" y="94" type="line" smooth="yes"/>
      <point x="310" y="56"/>
      <point x="214" y="-106"/>
      <point x="156" y="-208" type="qcurve"/>
    </contour>
  </outline>
</glyph>
<glyph name="A" format="2">
  <advance width="1180"/>
  <unicode hex="0041"/>
  <outline>
    <contour>
      <point x="972" y="455" type="line"/>
      <point x="200" y="455" type="line"/>
      <point x="218" y="505" type="line"/>
      <point x="953" y="505" type="line"/>
    </contour>
    <contour>
      <point x="635" y="1500" type="line"/>
      <point x="1150" y="0" type="line"/>
      <point x="1103" y="0" type="line"/>
      <point x="604" y="1455" type="line"/>
      <point x="563" y="1456" type="line"/>
      <point x="67" y="0" type="line"/>
      <point x="20" y="0" type="line"/>
      <point x="534" y="1499" type="line"/>
    </contour>
  </outline>
</glyph>
<glyph name="C" format="2">
  <advance width="1445"/>
  <unicode hex="0043"/>
  <outline>
    <contour>
      <point x="772" y="14.0" type="line" smooth="yes"/>
      <point x="1054" y="14.0"/>
      <point x="1342" y="290.0"/>
      <point x="1342" y="528.0" type="qcurve" smooth="yes"/>
      <point x="1342" y="552.0" type="line"/>
      <point x="1388" y="552.0" type="line"/>
      <point x="1388" y="527.0" type="line" smooth="yes"/>
      <point x="1388" y="275.0"/>
      <point x="1074" y="-24.0"/>
      <point x="772" y="-24.0" type="qcurve" smooth="yes"/>
      <point x="761" y="-24.0" type="line" smooth="yes"/>
      <point x="461" y="-24.0"/>
      <point x="96" y="381.0"/>
      <point x="96" y="724.0" type="qcurve" smooth="yes"/>
      <point x="96" y="775.0" type="line" smooth="yes"/>
      <point x="96" y="1111.0"/>
      <point x="423" y="1524.0"/>
      <point x="755" y="1524.0" type="qcurve" smooth="yes"/>
      <point x="767" y="1524.0" type="line" smooth="yes"/>
      <point x="1056" y="1524.0"/>
      <point x="1388" y="1251.0"/>
      <point x="1388" y="979.0" type="qcurve" smooth="yes"/>
      <point x="1388" y="947.0" type="line"/>
      <point x="1342" y="947.0" type="line"/>
      <point x="1342" y="970.0" type="line" smooth="yes"/>
      <point x="1342" y="1230.0"/>
      <point x="1026" y="1486.0"/>
      <point x="765" y="1486.0" type="qcurve" smooth="yes"/>
      <point x="752" y="1486.0" type="line" smooth="yes"/>
      <point x="445" y="1486.0"/>
      <point x="136" y="1087.0"/>
      <point x="136" y="770.0" type="qcurve" smooth="yes"/>
      <point x="136" y="722.0" type="line" smooth="yes"/>
      <point x="136" y="398.0"/>
      <point x="460" y="14.0"/>
      <point x="763" y="14.0" type="qcurve" smooth="yes"/>
    </contour>
  </outline>
</glyph>
<glyph name="F" format="2">
  <advance width="962"/>
  <unicode hex="0046"/>
  <outline>
    <contour>
      <point x="226" y="0" type="line"/>
      <point x="226" y="1500" type="line"/>
      <point x="266" y="1500" type="line"/>
      <point x="266" y="0" type="line"/>
    </contour>
    <contour>
      <point x="882" y="769" type="line"/>
      <point x="247" y="769" type="line"/>
      <point x="247" y="805" type="line"/>
      <point x="882" y="805" type="line"/>
    </contour>
    <contour>
      <point x="942" y="1462" type="line"/>
      <point x="247" y="1462" type="line"/>
      <point x="247" y="1500" type="line"/>
      <point x="942" y="1500" type="line"/>
    </contour>
  </outline>
</glyph>
<glyph name="I" format="2">
  <advance width="544"/>
  <unicode hex="0049"/>
  <outline>
    <contour>
      <point x="252" y="0" type="line"/>
      <point x="252" y="1500" type="line"/>
      <point x="292" y="1500" type="line"/>
      <point x="292" y="0" type="line"/>
    </contour>
  </outline>
</glyph>
<glyph name="J" format="2">
  <advance width="1049"/>
  <unicode hex="004A"/>
  <outline>
    <contour>
      <point x="816.0" y="486" type="line" smooth="yes"/>
      <point x="816.0" y="226"/>
      <point x="622" y="-25"/>
      <point x="445" y="-25" type="qcurve" smooth="yes"/>
      <point x="433" y="-25.0" type="line" smooth="yes"/>
      <point x="238" y="-25"/>
      <point x="44" y="154"/>
      <point x="44" y="349" type="qcurve" smooth="yes"/>
      <point x="44" y="364" type="line"/>
      <point x="82.0" y="363.0" type="line"/>
      <point x="82.0" y="342.0" type="line" smooth="yes"/>
      <point x="82" y="171.0"/>
      <point x="250" y="10"/>
      <point x="432" y="10.0" type="qcurve" smooth="yes"/>
      <point x="441.0" y="10" type="line" smooth="yes"/>
      <point x="601" y="10"/>
      <point x="776.0" y="240"/>
      <point x="776.0" y="459" type="qcurve" smooth="yes"/>
      <point x="775" y="1500" type="line"/>
      <point x="816" y="1500.0" type="line"/>
    </contour>
  </outline>
</glyph>
<glyph name="K" format="2">
  <advance width="1172"/>
  <unicode hex="004B"/>
  <outline>
    <contour>
      <point x="226" y="0" type="line"/>
      <point x="226" y="1500" type="line"/>
      <point x="266" y="1500" type="line"/>
      <point x="266" y="653" type="line"/>
      <point x="472" y="875" type="line"/>
      <point x="1065" y="1500" type="line"/>
      <point x="1122" y="1500" type="line"/>
      <point x="542" y="897" type="line"/>
      <point x="530" y="885" type="line"/>
      <point x="266" y="599" type="line"/>
      <point x="266" y="0" type="line"/>
    </contour>
    <contour>
      <point x="509" y="888" type="line"/>
      <point x="539" y="924" type="line"/>
      <point x="1222" y="0" type="line"/>
      <point x="1171" y="0" type="line"/>
    </contour>
  </outline>
</glyph>
<glyph name="L" format="2">
  <advance width="1072"/>
  <unicode hex="004C"/>
  <outline>
    <contour>
      <point x="226" y="0" type="line"/>
      <point x="226" y="1500" type="line"/>
      <point x="266" y="1500" type="line"/>
      <point x="266" y="0" type="line"/>
    </contour>
    <contour>
      <point x="1052" y="0" type="line"/>
      <point x="247" y="0" type="line"/>
      <point x="247" y="38" type="line"/>
      <point x="1052" y="38" type="line"/>
    </contour>
  </outline>
</glyph>
<glyph name="M" format="2">
  <advance width="1814"/>
  <unicode hex="004D"/>
  <outline>
    <contour>
      <point x="226" y="0" type="line"/>
      <point x="226" y="1500" type="line"/>
      <point x="287" y="1500" type="line"/>
      <point x="901" y="76" type="line"/>
      <point x="914" y="76" type="line"/>
      <point x="1522" y="1500" type="line"/>
      <point x="1589" y="1500" type="line"/>
      <point x="1589" y="0" type="line"/>
      <point x="1549" y="0" type="line"/>
      <point x="1549" y="1452" type="line"/>
      <point x="920" y="0" type="line"/>
      <point x="890" y="0" type="line"/>
      <point x="266" y="1455" type="line"/>
      <point x="266" y="0" type="line"/>
    </contour>
  </outline>
</glyph>
<glyph name="P" format="2">
  <advance width="1200"/>
  <unicode hex="0050"/>
  <outline>
    <contour>
      <point x="226" y="0" type="line"/>
      <point x="226" y="1500" type="line"/>
      <point x="266" y="1500" type="line"/>
      <point x="266" y="0" type="line"/>
    </contour>
    <contour>
      <point x="670.0" y="679" type="qcurve" smooth="yes"/>
      <point x="242.0" y="679" type="line"/>
      <point x="242.0" y="717" type="line"/>
      <point x="644.0" y="717" type="line" smooth="yes"/>
      <point x="876.0" y="717.0"/>
      <point x="1083" y="918"/>
      <point x="1083.0" y="1105" type="qcurve" smooth="yes"/>
      <point x="1083.0" y="1116" type="line" smooth="yes"/>
      <point x="1083" y="1293"/>
      <point x="883.0" y="1462.0"/>
      <point x="701.0" y="1462" type="qcurve" smooth="yes"/>
      <point x="242.0" y="1462" type="line"/>
      <point x="242" y="1500" type="line"/>
      <point x="709.0" y="1500.0" type="line" smooth="yes"/>
      <point x="896.0" y="1500.0"/>
      <point x="1123" y="1301"/>
      <point x="1123.0" y="1116" type="qcurve" smooth="yes"/>
      <point x="1123.0" y="1101" type="line" smooth="yes"/>
      <point x="1123" y="900"/>
      <point x="898" y="680"/>
    </contour>
  </outline>
</glyph>
<glyph name="R" format="2">
  <advance width="1202"/>
  <unicode hex="0052"/>
  <outline>
    <contour>
      <point x="226" y="0" type="line"/>
      <point x="226" y="1500" type="line"/>
      <point x="266" y="1500" type="line"/>
      <point x="266" y="0" type="line"/>
    </contour>
    <contour>
      <point x="630" y="691.0" type="qcurve" smooth="yes"/>
      <point x="247" y="691.0" type="line"/>
      <point x="247.0" y="730" type="line"/>
      <point x="618" y="730" type="line" smooth="yes"/>
      <point x="805.0" y="730.0"/>
      <point x="1018" y="922.0"/>
      <point x="1018" y="1112.0" type="qcurve" smooth="yes"/>
      <point x="1018" y="1133.0" type="line" smooth="yes"/>
      <point x="1018.0" y="1294.0"/>
      <point x="821.0" y="1462.0"/>
      <point x="621" y="1462.0" type="qcurve" smooth="yes"/>
      <point x="247.0" y="1462" type="line"/>
      <point x="247" y="1500.0" type="line"/>
      <point x="627" y="1500.0" type="line" smooth="yes"/>
      <point x="841.0" y="1500.0"/>
      <point x="1059.0" y="1316.0"/>
      <point x="1059.0" y="1122.0" type="qcurve" smooth="yes"/>
      <point x="1059.0" y="1107.0" type="line" smooth="yes"/>
      <point x="1059.0" y="895.0"/>
      <point x="821.0" y="691.0"/>
    </contour>
    <contour>
      <point x="723" y="725" type="line"/>
      <point x="1230" y="0" type="line"/>
      <point x="1180" y="0" type="line"/>
      <point x="684" y="710" type="line"/>
    </contour>
  </outline>
</glyph>
<glyph name="T" format="2">
  <advance width="1024"/>
  <unicode hex="0054"/>
  <outline>
    <contour>
      <point x="492.0" y="0.0" type="line"/>
      <point x="492.0" y="1480.0" type="line"/>
      <point x="532.0" y="1480.0" type="line"/>
      <point x="532.0" y="0.0" type="line"/>
    </contour>
    <contour>
      <point x="992" y="1460" type="line"/>
      <point x="32" y="1460" type="line"/>
      <point x="32" y="1500" type="line"/>
      <point x="992" y="1500" type="line"/>
    </contour>
  </outline>
</glyph>
<glyph name="V" format="2">
  <advance width="1180"/>
  <unicode hex="0056"/>
  <outline>
    <contour>
      <point x="555" y="0" type="line"/>
      <point x="10" y="1500" type="line"/>
      <point x="53.0" y="1500.0" type="line"/>
      <point x="579.0" y="51" type="line"/>
      <point x="1119.0" y="1500.0" type="line"/>
      <point x="1160" y="1500" type="line"/>
      <point x="601" y="0" type="line"/>
    </contour>
  </outline>
</glyph>
<glyph name="W" format="2">
  <advance width="1770"/>
  <unicode hex="0057"/>
  <outline>
    <contour>
      <point x="436" y="0" type="line"/>
      <point x="21" y="1500" type="line"/>
      <point x="63" y="1500" type="line"/>
      <point x="467" y="35" type="line"/>
      <point x="863" y="1500" type="line"/>
      <point x="909" y="1500" type="line"/>
      <point x="1312" y="35" type="line"/>
      <point x="1714" y="1500" type="line"/>
      <point x="1750" y="1500" type="line"/>
      <point x="1344" y="0" type="line"/>
      <point x="1281" y="0" type="line"/>
      <point x="894" y="1411" type="line"/>
      <point x="880" y="1411" type="line"/>
      <point x="495" y="0" type="line"/>
    </contour>
  </outline>
</glyph>
<glyph name="X" format="2">
  <advance width="1070"/>
  <unicode hex="0058"/>
  <outline>
    <contour>
      <point x="20" y="0" type="line"/>
      <point x="518" y="775" type="line"/>
      <point x="531" y="785" type="line"/>
      <point x="991" y="1500" type="line"/>
      <point x="1037" y="1500" type="line"/>
      <point x="559" y="756" type="line"/>
      <point x="543" y="742" type="line"/>
      <point x="66" y="0" type="line"/>
    </contour>
    <contour>
      <point x="1003" y="0" type="line"/>
      <point x="527" y="741" type="line"/>
      <point x="521" y="751" type="line"/>
      <point x="41" y="1500" type="line"/>
      <point x="89" y="1500" type="line"/>
      <point x="545" y="788" type="line"/>
      <point x="551" y="779" type="line"/>
      <point x="1050" y="0" type="line"/>
    </contour>
  </outline>
</glyph>
<glyph name="a" format="2">
  <advance width="1094"/>
  <unicode hex="0061"/>
  <outline>
    <contour>
      <point x="172" y="914" type="line"/>
      <point x="222" y="965"/>
      <point x="410" y="1040.0"/>
      <point x="535" y="1040.0" type="qcurve" smooth="yes"/>
      <point x="709" y="1040"/>
      <point x="920" y="870"/>
      <point x="920" y="700" type="qcurve" smooth="yes"/>
      <point x="920" y="0" type="line"/>
      <point x="878" y="0" type="line"/>
      <point x="878" y="700" type="line" smooth="yes"/>
      <point x="878.0" y="846.0"/>
      <point x="695" y="1004"/>
      <point x="540" y="1004" type="qcurve" smooth="yes"/>
      <point x="418.0" y="1004.0"/>
      <point x="236.0" y="927.0"/>
      <point x="181" y="868" type="qcurve"/>
    </contour>
    <contour>
      <point x="899" y="171.0" type="line"/>
      <point x="844" y="99.0"/>
      <point x="636" y="-23"/>
      <point x="475" y="-23" type="qcurve" smooth="yes"/>
      <point x="292" y="-23"/>
      <point x="88" y="157"/>
      <point x="88" y="305.0" type="qcurve" smooth="yes"/>
      <point x="88" y="457"/>
      <point x="321" y="635.0"/>
      <point x="497" y="635.0" type="qcurve" smooth="yes"/>
      <point x="639" y="635"/>
      <point x="841" y="592.0"/>
      <point x="901" y="572.0" type="qcurve"/>
      <point x="901.0" y="527" type="line"/>
      <point x="838.0" y="554"/>
      <point x="624" y="599.0"/>
      <point x="500" y="599.0" type="qcurve" smooth="yes"/>
      <point x="339" y="599"/>
      <point x="127" y="439.0"/>
      <point x="127" y="303.0" type="qcurve" smooth="yes"/>
      <point x="127.0" y="178.0"/>
      <point x="311" y="13"/>
      <point x="474" y="13.0" type="qcurve" smooth="yes"/>
      <point x="621" y="13"/>
      <point x="831.0" y="131"/>
      <point x="899.0" y="217" type="qcurve"/>
    </contour>
  </outline>
</glyph>
<glyph name="c" format="2">
  <advance width="1057"/>
  <unicode hex="0063"/>
  <outline>
    <contour>
      <point x="1003" y="363.0" type="line"/>
      <point x="1000" y="337.0" type="line" smooth="yes"/>
      <point x="984" y="195"/>
      <point x="775.0" y="-25.0"/>
      <point x="567" y="-25.0" type="qcurve" smooth="yes"/>
      <point x="560" y="-25.0" type="line" smooth="yes"/>
      <point x="344.0" y="-25"/>
      <point x="80" y="248.0"/>
      <point x="80" y="484.0" type="qcurve" smooth="yes"/>
      <point x="80" y="519.0" type="line" smooth="yes"/>
      <point x="80" y="755.0"/>
      <point x="336.0" y="1040.0"/>
      <point x="548" y="1040.0" type="qcurve" smooth="yes"/>
      <point x="569" y="1040.0" type="line" smooth="yes"/>
      <point x="774.0" y="1040.0"/>
      <point x="986" y="831.0"/>
      <point x="999" y="655.0" type="qcurve" smooth="yes"/>
      <point x="1001" y="628.0" type="line"/>
      <point x="964" y="629.0" type="line"/>
      <point x="962" y="658.0" type="line" smooth="yes"/>
      <point x="952" y="805"/>
      <point x="754.0" y="1004.0"/>
      <point x="563.0" y="1004" type="qcurve" smooth="yes"/>
      <point x="550.0" y="1004" type="line" smooth="yes"/>
      <point x="359.0" y="1004.0"/>
      <point x="119" y="743.0"/>
      <point x="119.0" y="519" type="qcurve" smooth="yes"/>
      <point x="119.0" y="485" type="line" smooth="yes"/>
      <point x="119" y="262.0"/>
      <point x="362.0" y="10"/>
      <point x="556.0" y="10" type="qcurve" smooth="yes"/>
      <point x="579.0" y="10" type="line" smooth="yes"/>
      <point x="760.0" y="10.0"/>
      <point x="948" y="219"/>
      <point x="963" y="340.0" type="qcurve" smooth="yes"/>
      <point x="966" y="365.0" type="line"/>
    </contour>
  </outline>
</glyph>
<glyph name="e" format="2">
  <advance width="1057"/>
  <unicode hex="0065"/>
  <outline>
    <contour>
      <point x="1006" y="329.0" type="line"/>
      <point x="1003" y="305.0" type="line" smooth="yes"/>
      <point x="986" y="171"/>
      <point x="760.0" y="-25.0"/>
      <point x="561" y="-25.0" type="qcurve" smooth="yes"/>
      <point x="554" y="-25.0" type="line" smooth="yes"/>
      <point x="345" y="-25"/>
      <point x="80" y="248.0"/>
      <point x="80" y="484.0" type="qcurve" smooth="yes"/>
      <point x="80" y="519.0" type="line" smooth="yes"/>
      <point x="80" y="745.0"/>
      <point x="350.0" y="1040.0"/>
      <point x="543" y="1040.0" type="qcurve" smooth="yes"/>
      <point x="564" y="1040.0" type="line" smooth="yes"/>
      <point x="769.0" y="1040.0"/>
      <point x="993" y="811"/>
      <point x="999" y="594.0" type="qcurve" smooth="yes"/>
      <point x="1000" y="525.0" type="line"/>
      <point x="106" y="525" type="line"/>
      <point x="106" y="562" type="line"/>
      <point x="960" y="562" type="line"/>
      <point x="960" y="600" type="line" smooth="yes"/>
      <point x="960.0" y="781.0"/>
      <point x="759.0" y="1003.0"/>
      <point x="558" y="1003.0" type="qcurve" smooth="yes"/>
      <point x="553" y="1003.0" type="line" smooth="yes"/>
      <point x="363.0" y="1003.0"/>
      <point x="120" y="732.0"/>
      <point x="120" y="517.0" type="qcurve" smooth="yes"/>
      <point x="120" y="484.0" type="line" smooth="yes"/>
      <point x="120" y="259.0"/>
      <point x="365.0" y="11"/>
      <point x="551" y="11.0" type="qcurve" smooth="yes"/>
      <point x="563" y="11" type="line" smooth="yes"/>
      <point x="735.0" y="11.0"/>
      <point x="947" y="183"/>
      <point x="964" y="310" type="qcurve" smooth="yes"/>
      <point x="967" y="332" type="line"/>
    </contour>
  </outline>
</glyph>
<glyph name="f" format="2">
  <advance width="514"/>
  <unicode hex="0066"/>
  <outline>
    <contour>
      <point x="546" y="963" type="line"/>
      <point x="26" y="963" type="line"/>
      <point x="26" y="1000" type="line"/>
      <point x="546" y="1000" type="line"/>
    </contour>
    <contour>
      <point x="277.0" y="1350.0" type="qcurve" smooth="yes"/>
      <point x="277.0" y="0.0" type="line"/>
      <point x="237.0" y="0.0" type="line"/>
      <point x="237.0" y="1360.0" type="line" smooth="yes"/>
      <point x="237" y="1447.0"/>
      <point x="338" y="1553"/>
      <point x="408" y="1553.0" type="qcurve" smooth="yes"/>
      <point x="466" y="1553"/>
      <point x="532.0" y="1532.0"/>
      <point x="546" y="1526" type="qcurve"/>
      <point x="540" y="1478" type="line"/>
      <point x="527.0" y="1484.0"/>
      <point x="458" y="1506"/>
      <point x="408" y="1506.0" type="qcurve" smooth="yes"/>
      <point x="350" y="1506"/>
      <point x="277.0" y="1430.0"/>
    </contour>
  </outline>
</glyph>
<glyph name="h" format="2">
  <advance width="1184"/>
  <unicode hex="0068"/>
  <outline>
    <contour>
      <point x="170.0" y="0.0" type="line"/>
      <point x="170.0" y="1500.0" type="line"/>
      <point x="210.0" y="1500.0" type="line"/>
      <point x="210.0" y="0.0" type="line"/>
    </contour>
    <contour>
      <point x="204" y="839" type="line"/>
      <point x="260" y="921"/>
      <point x="517" y="1040"/>
      <point x="652" y="1040" type="qcurve" smooth="yes"/>
      <point x="812" y="1040"/>
      <point x="1016" y="870"/>
      <point x="1017" y="700" type="qcurve" smooth="yes"/>
      <point x="1021" y="0" type="line"/>
      <point x="981" y="0.0" type="line"/>
      <point x="977.0" y="703" type="line" smooth="yes"/>
      <point x="976" y="857"/>
      <point x="798" y="1005"/>
      <point x="652.0" y="1005" type="qcurve" smooth="yes"/>
      <point x="528" y="1005"/>
      <point x="278" y="894.0"/>
      <point x="212" y="814.0" type="qcurve"/>
    </contour>
  </outline>
</glyph>
<glyph name="i" format="2">
  <advance width="470"/>
  <unicode hex="0069"/>
  <outline>
    <contour>
      <point x="215.0" y="0.0" type="line"/>
      <point x="215.0" y="1000.0" type="line"/>
      <point x="255.0" y="1000.0" type="line"/>
      <point x="255.0" y="0.0" type="line"/>
    </contour>
    <contour>
      <point x="234" y="1344" type="line" smooth="yes"/>
      <point x="258" y="1344"/>
      <point x="284" y="1371"/>
      <point x="284" y="1393" type="qcurve" smooth="yes"/>
      <point x="284" y="1396" type="line" smooth="yes"/>
      <point x="284" y="1419"/>
      <point x="258" y="1446.0"/>
      <point x="234" y="1446.0" type="qcurve" smooth="yes"/>
      <point x="233" y="1446.0" type="line" smooth="yes"/>
      <point x="211" y="1446.0"/>
      <point x="186" y="1419"/>
      <point x="186" y="1396" type="qcurve" smooth="yes"/>
      <point x="186" y="1393" type="line" smooth="yes"/>
      <point x="186" y="1371"/>
      <point x="211" y="1344"/>
      <point x="233" y="1344" type="qcurve" smooth="yes"/>
    </contour>
  </outline>
</glyph>
<glyph name="j" format="2">
  <advance width="475"/>
  <unicode hex="006A"/>
  <outline>
    <contour>
      <point x="255.0" y="-100.0" type="line" smooth="yes"/>
      <point x="255.0" y="-296.0"/>
      <point x="77" y="-500"/>
      <point x="-126" y="-500" type="qcurve" smooth="yes"/>
      <point x="-164" y="-500"/>
      <point x="-229" y="-491"/>
      <point x="-252" y="-484" type="qcurve"/>
      <point x="-245" y="-443" type="line"/>
      <point x="-224" y="-448"/>
      <point x="-148" y="-462"/>
      <point x="-122" y="-462" type="qcurve" smooth="yes"/>
      <point x="43" y="-462"/>
      <point x="215" y="-278.0"/>
      <point x="215.0" y="-60.0" type="qcurve" smooth="yes"/>
      <point x="215.0" y="1000.0" type="line"/>
      <point x="255.0" y="1000.0" type="line"/>
    </contour>
    <contour>
      <point x="230" y="1344" type="line" smooth="yes"/>
      <point x="254" y="1344"/>
      <point x="280" y="1371"/>
      <point x="280" y="1393" type="qcurve" smooth="yes"/>
      <point x="280" y="1396" type="line" smooth="yes"/>
      <point x="280" y="1419"/>
      <point x="254" y="1446.0"/>
      <point x="230" y="1446.0" type="qcurve" smooth="yes"/>
      <point x="229" y="1446.0" type="line" smooth="yes"/>
      <point x="207" y="1446.0"/>
      <point x="182" y="1419"/>
      <point x="182" y="1396" type="qcurve" smooth="yes"/>
      <point x="182" y="1393" type="line" smooth="yes"/>
      <point x="182" y="1371"/>
      <point x="207" y="1344"/>
      <point x="229" y="1344" type="qcurve" smooth="yes"/>
    </contour>
  </outline>
</glyph>
<glyph name="k" format="2">
  <advance width="965"/>
  <unicode hex="006B"/>
  <outline>
    <contour>
      <point x="177" y="0" type="line"/>
      <point x="177" y="1500" type="line"/>
      <point x="337" y="1500" type="line"/>
      <point x="337" y="0" type="line"/>
    </contour>
    <contour>
      <point x="465" y="510" type="line"/>
      <point x="337" y="398" type="line"/>
      <point x="337" y="533" type="line"/>
      <point x="453" y="662" type="line"/>
      <point x="630" y="860" type="line"/>
      <point x="752" y="997" type="line"/>
      <point x="940" y="997" type="line"/>
      <point x="733" y="775" type="line"/>
      <point x="529" y="556" type="line"/>
    </contour>
    <contour>
      <point x="532" y="631" type="line"/>
      <point x="766" y="316" type="line"/>
      <point x="1001" y="0" type="line"/>
      <point x="811" y="0" type="line"/>
      <point x="642" y="227" type="line"/>
      <point x="412" y="536" type="line"/>
    </contour>
  </outline>
</glyph>
<glyph name="l" format="2">
  <advance width="474"/>
  <unicode hex="006C"/>
  <outline>
    <contour>
      <point x="217.0" y="0.0" type="line"/>
      <point x="217.0" y="1500.0" type="line"/>
      <point x="257.0" y="1500.0" type="line"/>
      <point x="257.0" y="0.0" type="line"/>
    </contour>
  </outline>
</glyph>
<glyph name="m" format="2">
  <advance width="1846"/>
  <unicode hex="006D"/>
  <outline>
    <contour>
      <point x="170" y="0" type="line"/>
      <point x="170" y="1000" type="line"/>
      <point x="210" y="1000" type="line"/>
      <point x="210" y="0" type="line"/>
    </contour>
    <contour>
      <point x="201" y="849" type="line"/>
      <point x="273" y="928"/>
      <point x="493" y="1040"/>
      <point x="617.0" y="1040.0" type="qcurve" smooth="yes"/>
      <point x="777" y="1040"/>
      <point x="941.0" y="879.0"/>
      <point x="941" y="709.0" type="qcurve" smooth="yes"/>
      <point x="941" y="0.0" type="line"/>
      <point x="901.0" y="0.0" type="line"/>
      <point x="901" y="706.0" type="line" smooth="yes"/>
      <point x="901.0" y="858.0"/>
      <point x="760" y="1006"/>
      <point x="618.0" y="1006.0" type="qcurve" smooth="yes"/>
      <point x="502" y="1006"/>
      <point x="284" y="893"/>
      <point x="205" y="806" type="qcurve"/>
    </contour>
    <contour>
      <point x="905" y="853" type="line"/>
      <point x="979" y="940"/>
      <point x="1188" y="1040"/>
      <point x="1319.0" y="1040.0" type="qcurve" smooth="yes"/>
      <point x="1468.0" y="1040"/>
      <point x="1672" y="870"/>
      <point x="1672" y="700.0" type="qcurve" smooth="yes"/>
      <point x="1672" y="0.0" type="line"/>
      <point x="1632.0" y="0.0" type="line"/>
      <point x="1632.0" y="703" type="line" smooth="yes"/>
      <point x="1632" y="856"/>
      <point x="1454.0" y="1005"/>
      <point x="1322.0" y="1005.0" type="qcurve" smooth="yes"/>
      <point x="1206" y="1005"/>
      <point x="998" y="910"/>
      <point x="914" y="818" type="qcurve"/>
    </contour>
  </outline>
</glyph>
<glyph name="n" format="2">
  <advance width="1184"/>
  <unicode hex="006E"/>
  <outline>
    <contour>
      <point x="170.0" y="0.0" type="line"/>
      <point x="170.0" y="1000.0" type="line"/>
      <point x="210.0" y="1000.0" type="line"/>
      <point x="210.0" y="0.0" type="line"/>
    </contour>
    <contour>
      <point x="204" y="839" type="line"/>
      <point x="260" y="921"/>
      <point x="516" y="1040"/>
      <point x="651" y="1040" type="qcurve" smooth="yes"/>
      <point x="811" y="1040"/>
      <point x="1021" y="870"/>
      <point x="1021" y="700" type="qcurve" smooth="yes"/>
      <point x="1020" y="0" type="line"/>
      <point x="980" y="0.0" type="line"/>
      <point x="980.0" y="703" type="line" smooth="yes"/>
      <point x="980.0" y="850.0"/>
      <point x="797" y="1005"/>
      <point x="651.0" y="1005" type="qcurve" smooth="yes"/>
      <point x="527" y="1005"/>
      <point x="278" y="894.0"/>
      <point x="212" y="814.0" type="qcurve"/>
    </contour>
  </outline>
</glyph>
<glyph name="p" format="2">
  <advance width="1185"/>
  <unicode hex="0070"/>
  <outline>
    <contour>
      <point x="170" y="-500" type="line"/>
      <point x="170" y="1000" type="line"/>
      <point x="210" y="1000" type="line"/>
      <point x="210" y="-500" type="line"/>
    </contour>
    <contour>
      <point x="183" y="519.0" type="line" smooth="yes"/>
      <point x="183" y="785.0"/>
      <point x="427" y="1040"/>
      <point x="622" y="1040.0" type="qcurve" smooth="yes"/>
      <point x="629" y="1040.0" type="line" smooth="yes"/>
      <point x="834" y="1040"/>
      <point x="1105.0" y="745.0"/>
      <point x="1105.0" y="519.0" type="qcurve" smooth="yes"/>
      <point x="1105.0" y="484.0" type="line" smooth="yes"/>
      <point x="1105.0" y="258.0"/>
      <point x="838" y="-25"/>
      <point x="633" y="-25.0" type="qcurve" smooth="yes"/>
      <point x="626.0" y="-25.0" type="line" smooth="yes"/>
      <point x="431" y="-25"/>
      <point x="183" y="238.0"/>
      <point x="183" y="484.0" type="qcurve" smooth="yes"/>
    </contour>
    <contour>
      <point x="209.0" y="520" type="qcurve" smooth="yes"/>
      <point x="209.0" y="485" type="line" smooth="yes"/>
      <point x="209" y="261"/>
      <point x="438" y="11"/>
      <point x="632.0" y="11" type="qcurve" smooth="yes"/>
      <point x="641.0" y="11" type="line" smooth="yes"/>
      <point x="811" y="11"/>
      <point x="1065.0" y="273"/>
      <point x="1065.0" y="485" type="qcurve" smooth="yes"/>
      <point x="1065.0" y="520" type="line" smooth="yes"/>
      <point x="1065.0" y="732"/>
      <point x="815" y="1004"/>
      <point x="641.0" y="1004" type="qcurve" smooth="yes"/>
      <point x="632.0" y="1004" type="line" smooth="yes"/>
      <point x="451" y="1004"/>
      <point x="209" y="765.0"/>
    </contour>
  </outline>
</glyph>
<glyph name="r" format="2">
  <advance width="737"/>
  <unicode hex="0072"/>
  <outline>
    <contour>
      <point x="170" y="0" type="line"/>
      <point x="170" y="1000" type="line"/>
      <point x="210" y="1000" type="line"/>
      <point x="210" y="0" type="line"/>
    </contour>
    <contour>
      <point x="180" y="803" type="line"/>
      <point x="232" y="908"/>
      <point x="501" y="1040"/>
      <point x="656" y="1040" type="qcurve" smooth="yes"/>
      <point x="669" y="1040"/>
      <point x="695" y="1039"/>
      <point x="707" y="1038" type="qcurve"/>
      <point x="707" y="990" type="line"/>
      <point x="696" y="991"/>
      <point x="670" y="993"/>
      <point x="656" y="993" type="qcurve" smooth="yes"/>
      <point x="504" y="993"/>
      <point x="259" y="879"/>
      <point x="202" y="779" type="qcurve"/>
    </contour>
  </outline>
</glyph>
<glyph name="s" format="2">
  <advance width="973"/>
  <unicode hex="0073"/>
  <outline>
    <contour>
      <point x="760.0" y="276" type="line" smooth="yes"/>
      <point x="760.0" y="353.0"/>
      <point x="667.0" y="423"/>
      <point x="483.0" y="465" type="qcurve" smooth="yes"/>
      <point x="277" y="512"/>
      <point x="96.0" y="639"/>
      <point x="96.0" y="772" type="qcurve" smooth="yes"/>
      <point x="96.0" y="783" type="line" smooth="yes"/>
      <point x="96.0" y="899"/>
      <point x="295.0" y="1040"/>
      <point x="475.0" y="1040" type="qcurve" smooth="yes"/>
      <point x="484.0" y="1040" type="line" smooth="yes"/>
      <point x="675.0" y="1040"/>
      <point x="854" y="893"/>
      <point x="863.0" y="774" type="qcurve" smooth="yes"/>
      <point x="868.0" y="708" type="line"/>
      <point x="725.0" y="708" type="line"/>
      <point x="725.0" y="750" type="line" smooth="yes"/>
      <point x="725.0" y="826"/>
      <point x="599" y="899"/>
      <point x="481.0" y="899" type="qcurve" smooth="yes"/>
      <point x="473.0" y="899" type="line" smooth="yes"/>
      <point x="361" y="899"/>
      <point x="256" y="841"/>
      <point x="256.0" y="789" type="qcurve" smooth="yes"/>
      <point x="256.0" y="781" type="line" smooth="yes"/>
      <point x="256" y="720"/>
      <point x="330.0" y="660"/>
      <point x="525.0" y="612" type="qcurve" smooth="yes"/>
      <point x="730.0" y="562"/>
      <point x="916.0" y="438"/>
      <point x="916.0" y="299" type="qcurve" smooth="yes"/>
      <point x="916.0" y="268" type="line" smooth="yes"/>
      <point x="916.0" y="142"/>
      <point x="703.0" y="-27"/>
      <point x="499.0" y="-27" type="qcurve" smooth="yes"/>
      <point x="496.0" y="-27" type="line" smooth="yes"/>
      <point x="271.0" y="-27"/>
      <point x="62.0" y="142"/>
      <point x="62.0" y="263" type="qcurve" smooth="yes"/>
      <point x="62.0" y="321" type="line"/>
      <point x="213.0" y="321" type="line"/>
      <point x="213.0" y="267" type="line" smooth="yes"/>
      <point x="213" y="193"/>
      <point x="369" y="104"/>
      <point x="494.0" y="104" type="qcurve" smooth="yes"/>
      <point x="499.0" y="104" type="line" smooth="yes"/>
      <point x="600.0" y="104.0"/>
      <point x="760" y="189"/>
      <point x="760.0" y="264" type="qcurve" smooth="yes"/>
    </contour>
  </outline>
</glyph>
<glyph name="t" format="2">
  <advance width="613"/>
  <unicode hex="0074"/>
  <outline>
    <contour>
      <point x="556" y="861" type="line"/>
      <point x="56" y="861" type="line"/>
      <point x="56" y="1000" type="line"/>
      <point x="556" y="1000" type="line"/>
    </contour>
    <contour>
      <point x="337" y="257" type="line" smooth="yes"/>
      <point x="337.0" y="199.0"/>
      <point x="410" y="126"/>
      <point x="451" y="126" type="qcurve" smooth="yes"/>
      <point x="495" y="126"/>
      <point x="550" y="146"/>
      <point x="570" y="157" type="qcurve"/>
      <point x="576" y="9" type="line"/>
      <point x="558" y="-1"/>
      <point x="476" y="-18"/>
      <point x="425" y="-18" type="qcurve" smooth="yes"/>
      <point x="318" y="-18"/>
      <point x="177.0" y="122.0"/>
      <point x="177" y="245" type="qcurve" smooth="yes"/>
      <point x="177" y="1233" type="line"/>
      <point x="337" y="1233" type="line"/>
    </contour>
  </outline>
</glyph>
<glyph name="w" format="2">
  <advance width="1368"/>
  <unicode hex="0077"/>
  <outline>
    <contour>
      <point x="336" y="-10" type="line"/>
      <point x="30" y="1000" type="line"/>
      <point x="72" y="1000" type="line"/>
      <point x="358" y="58" type="line"/>
      <point x="668" y="1010" type="line"/>
      <point x="709" y="1010" type="line"/>
      <point x="999" y="58" type="line"/>
      <point x="1297" y="1000" type="line"/>
      <point x="1338" y="1000" type="line"/>
      <point x="1018" y="-10" type="line"/>
      <point x="978" y="-10" type="line"/>
      <point x="687" y="945" type="line"/>
      <point x="376" y="-10" type="line"/>
    </contour>
  </outline>
</glyph>
<glyph name="x" format="2">
  <advance width="870"/>
  <unicode hex="0078"/>
  <outline>
    <contour>
      <point x="22" y="0" type="line"/>
      <point x="782" y="1000" type="line"/>
      <point x="829" y="1000" type="line"/>
      <point x="69" y="0" type="line"/>
    </contour>
    <contour>
      <point x="800" y="0" type="line"/>
      <point x="50" y="1000" type="line"/>
      <point x="99" y="1000" type="line"/>
      <point x="848" y="0" type="line"/>
    </contour>
  </outline>
</glyph>
<glyph name="y" format="2">
  <advance width="936"/>
  <unicode hex="0079"/>
  <outline>
    <contour>
      <point x="444" y="-17" type="qcurve"/>
      <point x="30" y="1000" type="line"/>
      <point x="74" y="1000" type="line"/>
      <point x="468" y="30" type="line"/>
      <point x="865" y="1000" type="line"/>
      <point x="906" y="1000" type="line"/>
      <point x="481" y="-33" type="line" smooth="yes"/>
      <point x="389" y="-257"/>
      <point x="203.0" y="-500.0"/>
      <point x="92" y="-500" type="qcurve" smooth="yes"/>
      <point x="39" y="-500"/>
      <point x="-16" y="-491"/>
      <point x="-39" y="-484" type="qcurve"/>
      <point x="-27" y="-442" type="line"/>
      <point x="-6" y="-447"/>
      <point x="55" y="-460"/>
      <point x="93.0" y="-460.0" type="qcurve" smooth="yes"/>
      <point x="186" y="-460"/>
      <point x="354" y="-228"/>
    </contour>
  </outline>
</glyph>
<glyph name="bar" format="2">
  <advance width="584"/>
  <unicode hex="007C"/>
  <outline>
    <contour>
      <point x="272" y="-500" type="line"/>
      <point x="272" y="1500" type="line"/>
      <point x="312" y="1500" type="line"/>
      <point x="312" y="-500" type="line"/>
    </contour>
  </outline>
</glyph>
<glyph name="asciitilde" format="2">
  <advance width="1000"/>
  <unicode hex="007E"/>
  <outline>
    <contour>
      <point x="539" y="807.0" type="qcurve" smooth="yes"/>
      <point x="486" y="852.0"/>
      <point x="388" y="902.0"/>
      <point x="301" y="902.0" type="qcurve" smooth="yes"/>
      <point x="200" y="902"/>
      <point x="58" y="770.0"/>
      <point x="31" y="715.0" type="qcurve"/>
      <point x="153" y="615.0" type="line"/>
      <point x="168" y="648.0"/>
      <point x="249" y="730"/>
      <point x="300" y="730.0" type="qcurve"/>
      <point x="351" y="730"/>
      <point x="409" y="696"/>
      <point x="443" y="668.0" type="qcurve" smooth="yes"/>
      <point x="492" y="627"/>
      <point x="598" y="566.0"/>
      <point x="685" y="566.0" type="qcurve" smooth="yes"/>
      <point x="796" y="566.0"/>
      <point x="942" y="700.0"/>
      <point x="963" y="753.0" type="qcurve"/>
      <point x="841" y="853.0" type="line"/>
      <point x="827" y="822.0"/>
      <point x="740" y="738.0"/>
      <point x="689" y="738.0" type="qcurve" smooth="yes"/>
      <point x="639" y="738"/>
      <point x="580" y="772"/>
    </contour>
  </outline>
</glyph>
